<svg width="300" height="300" viewBox="0 0 300 300" fill="none" xmlns="http://www.w3.org/2000/svg">
<rect width="300" height="300" rx="20" fill="white"/>
<path d="M95.9311 119.2C105.072 101.304 41.7161 106.88 41.7161 106.88V38C41.7161 38 110.685 49.9794 141.203 78.88C160.914 97.5461 179.21 137.12 179.21 137.12C179.21 137.12 206.408 135.219 221.129 142.72C245.864 155.325 249.559 177.783 255.781 204.88C260.773 226.619 255.781 262 255.781 262H221.129C221.129 262 220.145 212.75 199.89 214.4C180.28 215.997 183.122 262 183.122 262H132.82C132.82 262 138.361 242.874 136.732 230.64C134.168 211.383 130.397 187.314 111.022 188.08C92.0834 188.828 89.4495 211.746 87.5473 230.64C86.3048 242.981 92.5776 262 92.5776 262H47.8642C47.8642 262 43.0381 235.496 41.7161 218.32C40.1049 197.388 41.7161 164.56 41.7161 164.56C41.7161 164.56 68.1866 170.859 76.9279 160.08C84.9112 150.236 76.9279 127.6 76.9279 127.6C76.9279 127.6 92.2638 126.379 95.9311 119.2Z" fill="#0F0F0F"/>
</svg>
