<svg width="329" height="329" viewBox="0 0 329 329" fill="none" xmlns="http://www.w3.org/2000/svg">
<circle cx="164.5" cy="164.5" r="164.5" fill="white"/>
<path d="M110.931 134.2C120.072 116.304 56.7161 121.88 56.7161 121.88V53C56.7161 53 125.685 64.9794 156.203 93.88C175.914 112.546 194.21 152.12 194.21 152.12C194.21 152.12 221.408 150.219 236.129 157.72C260.864 170.325 264.559 192.783 270.781 219.88C275.773 241.619 270.781 277 270.781 277H236.129C236.129 277 235.145 227.75 214.89 229.4C195.28 230.997 198.122 277 198.122 277H147.82C147.82 277 153.361 257.874 151.732 245.64C149.168 226.383 145.397 202.314 126.022 203.08C107.083 203.828 104.449 226.746 102.547 245.64C101.305 257.981 107.578 277 107.578 277H62.8642C62.8642 277 58.0381 250.496 56.7161 233.32C55.1049 212.388 56.7161 179.56 56.7161 179.56C56.7161 179.56 83.1866 185.859 91.9279 175.08C99.9112 165.236 91.9279 142.6 91.9279 142.6C91.9279 142.6 107.264 141.379 110.931 134.2Z" fill="#0F0F0F"/>
</svg>
